<?xml version="1.0" encoding="utf-8" standalone="no"?>
<!DOCTYPE svg PUBLIC "-//W3C//DTD SVG 1.1//EN"
  "http://www.w3.org/Graphics/SVG/1.1/DTD/svg11.dtd">
<svg xmlns:xlink="http://www.w3.org/1999/xlink" width="648pt" height="360pt" viewBox="0 0 648 360" xmlns="http://www.w3.org/2000/svg" version="1.1">
 <metadata>
  <rdf:RDF xmlns:dc="http://purl.org/dc/elements/1.1/" xmlns:cc="http://creativecommons.org/ns#" xmlns:rdf="http://www.w3.org/1999/02/22-rdf-syntax-ns#">
   <cc:Work>
    <dc:type rdf:resource="http://purl.org/dc/dcmitype/StillImage"/>
    <dc:format>image/svg+xml</dc:format>
    <dc:creator>
     <cc:Agent>
      <dc:title>Matplotlib v3.10.0, https://matplotlib.org/</dc:title>
     </cc:Agent>
    </dc:creator>
   </cc:Work>
  </rdf:RDF>
 </metadata>
 <defs>
  <style type="text/css">*{stroke-linejoin: round; stroke-linecap: butt}</style>
 </defs>
 <g id="figure_1">
  <g id="patch_1">
   <path d="M 0 360 
L 648 360 
L 648 0 
L 0 0 
z
" style="fill: #ffffff"/>
  </g>
  <g id="axes_1">
   <g id="patch_2">
    <path d="M 76.186334 326.64351 
L 643.000212 326.64351 
L 643.000212 18.118365 
L 76.186334 18.118365 
z
" style="fill: #ffffff"/>
   </g>
   <g id="patch_3">
    <path d="M 76.186334 312.61964 
L 290.720955 312.61964 
L 290.720955 293.604223 
L 76.186334 293.604223 
z
" clip-path="url(#p803eaa56cf)" style="fill: #295e8c"/>
   </g>
   <g id="patch_4">
    <path d="M 76.186334 288.850368 
L 82.315894 288.850368 
L 82.315894 269.834951 
L 76.186334 269.834951 
z
" clip-path="url(#p803eaa56cf)" style="fill: #295e8c"/>
   </g>
   <g id="patch_5">
    <path d="M 76.186334 265.081097 
L 508.320357 265.081097 
L 508.320357 246.065679 
L 76.186334 246.065679 
z
" clip-path="url(#p803eaa56cf)" style="fill: #295e8c"/>
   </g>
   <g id="patch_6">
    <path d="M 76.186334 241.311825 
L 147.69532 241.311825 
L 147.69532 222.296408 
L 76.186334 222.296408 
z
" clip-path="url(#p803eaa56cf)" style="fill: #295e8c"/>
   </g>
   <g id="patch_7">
    <path d="M 76.186334 217.542553 
L 76.186334 217.542553 
L 76.186334 198.527136 
L 76.186334 198.527136 
z
" clip-path="url(#p803eaa56cf)" style="fill: #295e8c"/>
   </g>
   <g id="patch_8">
    <path d="M 76.186334 193.773282 
L 611.802664 193.773282 
L 611.802664 174.757865 
L 76.186334 174.757865 
z
" clip-path="url(#p803eaa56cf)" style="fill: #295e8c"/>
   </g>
   <g id="patch_9">
    <path d="M 76.186334 170.00401 
L 104.930142 170.00401 
L 104.930142 150.988593 
L 76.186334 150.988593 
z
" clip-path="url(#p803eaa56cf)" style="fill: #295e8c"/>
   </g>
   <g id="patch_10">
    <path d="M 76.186334 146.234739 
L 76.186334 146.234739 
L 76.186334 127.219322 
L 76.186334 127.219322 
z
" clip-path="url(#p803eaa56cf)" style="fill: #295e8c"/>
   </g>
   <g id="patch_11">
    <path d="M 76.186334 122.465467 
L 616.009075 122.465467 
L 616.009075 103.45005 
L 76.186334 103.45005 
z
" clip-path="url(#p803eaa56cf)" style="fill: #295e8c"/>
   </g>
   <g id="patch_12">
    <path d="M 76.186334 98.696196 
L 159.752091 98.696196 
L 159.752091 79.680778 
L 76.186334 79.680778 
z
" clip-path="url(#p803eaa56cf)" style="fill: #295e8c"/>
   </g>
   <g id="patch_13">
    <path d="M 76.186334 74.926924 
L 76.186334 74.926924 
L 76.186334 55.911507 
L 76.186334 55.911507 
z
" clip-path="url(#p803eaa56cf)" style="fill: #295e8c"/>
   </g>
   <g id="patch_14">
    <path d="M 76.186334 51.157652 
L 612.132106 51.157652 
L 612.132106 32.142235 
L 76.186334 32.142235 
z
" clip-path="url(#p803eaa56cf)" style="fill: #295e8c"/>
   </g>
   <g id="matplotlib.axis_1">
    <g id="xtick_1">
     <g id="line2d_1">
      <defs>
       <path id="me63297a574" d="M 0 0 
L 0 3.5 
" style="stroke: #000000; stroke-width: 0.8"/>
      </defs>
      <g>
       <use xlink:href="#me63297a574" x="76.186334" y="326.64351" style="stroke: #000000; stroke-width: 0.8"/>
      </g>
     </g>
     <g id="text_1">
      <!-- 0.0 -->
      <g transform="translate(68.234771 341.241947) scale(0.1 -0.1)">
       <defs>
        <path id="DejaVuSans-30" d="M 2034 4250 
Q 1547 4250 1301 3770 
Q 1056 3291 1056 2328 
Q 1056 1369 1301 889 
Q 1547 409 2034 409 
Q 2525 409 2770 889 
Q 3016 1369 3016 2328 
Q 3016 3291 2770 3770 
Q 2525 4250 2034 4250 
z
M 2034 4750 
Q 2819 4750 3233 4129 
Q 3647 3509 3647 2328 
Q 3647 1150 3233 529 
Q 2819 -91 2034 -91 
Q 1250 -91 836 529 
Q 422 1150 422 2328 
Q 422 3509 836 4129 
Q 1250 4750 2034 4750 
z
" transform="scale(0.015625)"/>
        <path id="DejaVuSans-2e" d="M 684 794 
L 1344 794 
L 1344 0 
L 684 0 
L 684 794 
z
" transform="scale(0.015625)"/>
       </defs>
       <use xlink:href="#DejaVuSans-30"/>
       <use xlink:href="#DejaVuSans-2e" transform="translate(63.623047 0)"/>
       <use xlink:href="#DejaVuSans-30" transform="translate(95.410156 0)"/>
      </g>
     </g>
    </g>
    <g id="xtick_2">
     <g id="line2d_2">
      <g>
       <use xlink:href="#me63297a574" x="188.357293" y="326.64351" style="stroke: #000000; stroke-width: 0.8"/>
      </g>
     </g>
     <g id="text_2">
      <!-- 0.2 -->
      <g transform="translate(180.405731 341.241947) scale(0.1 -0.1)">
       <defs>
        <path id="DejaVuSans-32" d="M 1228 531 
L 3431 531 
L 3431 0 
L 469 0 
L 469 531 
Q 828 903 1448 1529 
Q 2069 2156 2228 2338 
Q 2531 2678 2651 2914 
Q 2772 3150 2772 3378 
Q 2772 3750 2511 3984 
Q 2250 4219 1831 4219 
Q 1534 4219 1204 4116 
Q 875 4013 500 3803 
L 500 4441 
Q 881 4594 1212 4672 
Q 1544 4750 1819 4750 
Q 2544 4750 2975 4387 
Q 3406 4025 3406 3419 
Q 3406 3131 3298 2873 
Q 3191 2616 2906 2266 
Q 2828 2175 2409 1742 
Q 1991 1309 1228 531 
z
" transform="scale(0.015625)"/>
       </defs>
       <use xlink:href="#DejaVuSans-30"/>
       <use xlink:href="#DejaVuSans-2e" transform="translate(63.623047 0)"/>
       <use xlink:href="#DejaVuSans-32" transform="translate(95.410156 0)"/>
      </g>
     </g>
    </g>
    <g id="xtick_3">
     <g id="line2d_3">
      <g>
       <use xlink:href="#me63297a574" x="300.528252" y="326.64351" style="stroke: #000000; stroke-width: 0.8"/>
      </g>
     </g>
     <g id="text_3">
      <!-- 0.4 -->
      <g transform="translate(292.57669 341.241947) scale(0.1 -0.1)">
       <defs>
        <path id="DejaVuSans-34" d="M 2419 4116 
L 825 1625 
L 2419 1625 
L 2419 4116 
z
M 2253 4666 
L 3047 4666 
L 3047 1625 
L 3713 1625 
L 3713 1100 
L 3047 1100 
L 3047 0 
L 2419 0 
L 2419 1100 
L 313 1100 
L 313 1709 
L 2253 4666 
z
" transform="scale(0.015625)"/>
       </defs>
       <use xlink:href="#DejaVuSans-30"/>
       <use xlink:href="#DejaVuSans-2e" transform="translate(63.623047 0)"/>
       <use xlink:href="#DejaVuSans-34" transform="translate(95.410156 0)"/>
      </g>
     </g>
    </g>
    <g id="xtick_4">
     <g id="line2d_4">
      <g>
       <use xlink:href="#me63297a574" x="412.699212" y="326.64351" style="stroke: #000000; stroke-width: 0.8"/>
      </g>
     </g>
     <g id="text_4">
      <!-- 0.6 -->
      <g transform="translate(404.747649 341.241947) scale(0.1 -0.1)">
       <defs>
        <path id="DejaVuSans-36" d="M 2113 2584 
Q 1688 2584 1439 2293 
Q 1191 2003 1191 1497 
Q 1191 994 1439 701 
Q 1688 409 2113 409 
Q 2538 409 2786 701 
Q 3034 994 3034 1497 
Q 3034 2003 2786 2293 
Q 2538 2584 2113 2584 
z
M 3366 4563 
L 3366 3988 
Q 3128 4100 2886 4159 
Q 2644 4219 2406 4219 
Q 1781 4219 1451 3797 
Q 1122 3375 1075 2522 
Q 1259 2794 1537 2939 
Q 1816 3084 2150 3084 
Q 2853 3084 3261 2657 
Q 3669 2231 3669 1497 
Q 3669 778 3244 343 
Q 2819 -91 2113 -91 
Q 1303 -91 875 529 
Q 447 1150 447 2328 
Q 447 3434 972 4092 
Q 1497 4750 2381 4750 
Q 2619 4750 2861 4703 
Q 3103 4656 3366 4563 
z
" transform="scale(0.015625)"/>
       </defs>
       <use xlink:href="#DejaVuSans-30"/>
       <use xlink:href="#DejaVuSans-2e" transform="translate(63.623047 0)"/>
       <use xlink:href="#DejaVuSans-36" transform="translate(95.410156 0)"/>
      </g>
     </g>
    </g>
    <g id="xtick_5">
     <g id="line2d_5">
      <g>
       <use xlink:href="#me63297a574" x="524.870171" y="326.64351" style="stroke: #000000; stroke-width: 0.8"/>
      </g>
     </g>
     <g id="text_5">
      <!-- 0.8 -->
      <g transform="translate(516.918608 341.241947) scale(0.1 -0.1)">
       <defs>
        <path id="DejaVuSans-38" d="M 2034 2216 
Q 1584 2216 1326 1975 
Q 1069 1734 1069 1313 
Q 1069 891 1326 650 
Q 1584 409 2034 409 
Q 2484 409 2743 651 
Q 3003 894 3003 1313 
Q 3003 1734 2745 1975 
Q 2488 2216 2034 2216 
z
M 1403 2484 
Q 997 2584 770 2862 
Q 544 3141 544 3541 
Q 544 4100 942 4425 
Q 1341 4750 2034 4750 
Q 2731 4750 3128 4425 
Q 3525 4100 3525 3541 
Q 3525 3141 3298 2862 
Q 3072 2584 2669 2484 
Q 3125 2378 3379 2068 
Q 3634 1759 3634 1313 
Q 3634 634 3220 271 
Q 2806 -91 2034 -91 
Q 1263 -91 848 271 
Q 434 634 434 1313 
Q 434 1759 690 2068 
Q 947 2378 1403 2484 
z
M 1172 3481 
Q 1172 3119 1398 2916 
Q 1625 2713 2034 2713 
Q 2441 2713 2670 2916 
Q 2900 3119 2900 3481 
Q 2900 3844 2670 4047 
Q 2441 4250 2034 4250 
Q 1625 4250 1398 4047 
Q 1172 3844 1172 3481 
z
" transform="scale(0.015625)"/>
       </defs>
       <use xlink:href="#DejaVuSans-30"/>
       <use xlink:href="#DejaVuSans-2e" transform="translate(63.623047 0)"/>
       <use xlink:href="#DejaVuSans-38" transform="translate(95.410156 0)"/>
      </g>
     </g>
    </g>
    <g id="xtick_6">
     <g id="line2d_6">
      <g>
       <use xlink:href="#me63297a574" x="637.04113" y="326.64351" style="stroke: #000000; stroke-width: 0.8"/>
      </g>
     </g>
     <g id="text_6">
      <!-- 1.0 -->
      <g transform="translate(629.089568 341.241947) scale(0.1 -0.1)">
       <defs>
        <path id="DejaVuSans-31" d="M 794 531 
L 1825 531 
L 1825 4091 
L 703 3866 
L 703 4441 
L 1819 4666 
L 2450 4666 
L 2450 531 
L 3481 531 
L 3481 0 
L 794 0 
L 794 531 
z
" transform="scale(0.015625)"/>
       </defs>
       <use xlink:href="#DejaVuSans-31"/>
       <use xlink:href="#DejaVuSans-2e" transform="translate(63.623047 0)"/>
       <use xlink:href="#DejaVuSans-30" transform="translate(95.410156 0)"/>
      </g>
     </g>
    </g>
    <g id="text_7">
     <!-- Fraction -->
     <g transform="translate(339.633898 354.920073) scale(0.1 -0.1)">
      <defs>
       <path id="DejaVuSans-46" d="M 628 4666 
L 3309 4666 
L 3309 4134 
L 1259 4134 
L 1259 2759 
L 3109 2759 
L 3109 2228 
L 1259 2228 
L 1259 0 
L 628 0 
L 628 4666 
z
" transform="scale(0.015625)"/>
       <path id="DejaVuSans-72" d="M 2631 2963 
Q 2534 3019 2420 3045 
Q 2306 3072 2169 3072 
Q 1681 3072 1420 2755 
Q 1159 2438 1159 1844 
L 1159 0 
L 581 0 
L 581 3500 
L 1159 3500 
L 1159 2956 
Q 1341 3275 1631 3429 
Q 1922 3584 2338 3584 
Q 2397 3584 2469 3576 
Q 2541 3569 2628 3553 
L 2631 2963 
z
" transform="scale(0.015625)"/>
       <path id="DejaVuSans-61" d="M 2194 1759 
Q 1497 1759 1228 1600 
Q 959 1441 959 1056 
Q 959 750 1161 570 
Q 1363 391 1709 391 
Q 2188 391 2477 730 
Q 2766 1069 2766 1631 
L 2766 1759 
L 2194 1759 
z
M 3341 1997 
L 3341 0 
L 2766 0 
L 2766 531 
Q 2569 213 2275 61 
Q 1981 -91 1556 -91 
Q 1019 -91 701 211 
Q 384 513 384 1019 
Q 384 1609 779 1909 
Q 1175 2209 1959 2209 
L 2766 2209 
L 2766 2266 
Q 2766 2663 2505 2880 
Q 2244 3097 1772 3097 
Q 1472 3097 1187 3025 
Q 903 2953 641 2809 
L 641 3341 
Q 956 3463 1253 3523 
Q 1550 3584 1831 3584 
Q 2591 3584 2966 3190 
Q 3341 2797 3341 1997 
z
" transform="scale(0.015625)"/>
       <path id="DejaVuSans-63" d="M 3122 3366 
L 3122 2828 
Q 2878 2963 2633 3030 
Q 2388 3097 2138 3097 
Q 1578 3097 1268 2742 
Q 959 2388 959 1747 
Q 959 1106 1268 751 
Q 1578 397 2138 397 
Q 2388 397 2633 464 
Q 2878 531 3122 666 
L 3122 134 
Q 2881 22 2623 -34 
Q 2366 -91 2075 -91 
Q 1284 -91 818 406 
Q 353 903 353 1747 
Q 353 2603 823 3093 
Q 1294 3584 2113 3584 
Q 2378 3584 2631 3529 
Q 2884 3475 3122 3366 
z
" transform="scale(0.015625)"/>
       <path id="DejaVuSans-74" d="M 1172 4494 
L 1172 3500 
L 2356 3500 
L 2356 3053 
L 1172 3053 
L 1172 1153 
Q 1172 725 1289 603 
Q 1406 481 1766 481 
L 2356 481 
L 2356 0 
L 1766 0 
Q 1100 0 847 248 
Q 594 497 594 1153 
L 594 3053 
L 172 3053 
L 172 3500 
L 594 3500 
L 594 4494 
L 1172 4494 
z
" transform="scale(0.015625)"/>
       <path id="DejaVuSans-69" d="M 603 3500 
L 1178 3500 
L 1178 0 
L 603 0 
L 603 3500 
z
M 603 4863 
L 1178 4863 
L 1178 4134 
L 603 4134 
L 603 4863 
z
" transform="scale(0.015625)"/>
       <path id="DejaVuSans-6f" d="M 1959 3097 
Q 1497 3097 1228 2736 
Q 959 2375 959 1747 
Q 959 1119 1226 758 
Q 1494 397 1959 397 
Q 2419 397 2687 759 
Q 2956 1122 2956 1747 
Q 2956 2369 2687 2733 
Q 2419 3097 1959 3097 
z
M 1959 3584 
Q 2709 3584 3137 3096 
Q 3566 2609 3566 1747 
Q 3566 888 3137 398 
Q 2709 -91 1959 -91 
Q 1206 -91 779 398 
Q 353 888 353 1747 
Q 353 2609 779 3096 
Q 1206 3584 1959 3584 
z
" transform="scale(0.015625)"/>
       <path id="DejaVuSans-6e" d="M 3513 2113 
L 3513 0 
L 2938 0 
L 2938 2094 
Q 2938 2591 2744 2837 
Q 2550 3084 2163 3084 
Q 1697 3084 1428 2787 
Q 1159 2491 1159 1978 
L 1159 0 
L 581 0 
L 581 3500 
L 1159 3500 
L 1159 2956 
Q 1366 3272 1645 3428 
Q 1925 3584 2291 3584 
Q 2894 3584 3203 3211 
Q 3513 2838 3513 2113 
z
" transform="scale(0.015625)"/>
      </defs>
      <use xlink:href="#DejaVuSans-46"/>
      <use xlink:href="#DejaVuSans-72" transform="translate(50.269531 0)"/>
      <use xlink:href="#DejaVuSans-61" transform="translate(91.382812 0)"/>
      <use xlink:href="#DejaVuSans-63" transform="translate(152.662109 0)"/>
      <use xlink:href="#DejaVuSans-74" transform="translate(207.642578 0)"/>
      <use xlink:href="#DejaVuSans-69" transform="translate(246.851562 0)"/>
      <use xlink:href="#DejaVuSans-6f" transform="translate(274.634766 0)"/>
      <use xlink:href="#DejaVuSans-6e" transform="translate(335.816406 0)"/>
     </g>
    </g>
   </g>
   <g id="matplotlib.axis_2">
    <g id="ytick_1">
     <g id="line2d_7">
      <defs>
       <path id="m7da14f4b75" d="M 0 0 
L -3.5 0 
" style="stroke: #000000; stroke-width: 0.8"/>
      </defs>
      <g>
       <use xlink:href="#m7da14f4b75" x="76.186334" y="303.111931" style="stroke: #000000; stroke-width: 0.8"/>
      </g>
     </g>
     <g id="text_8">
      <!-- R0 / ds_v2 -->
      <g transform="translate(32.873834 305.771384) scale(0.07 -0.07)">
       <defs>
        <path id="DejaVuSans-52" d="M 2841 2188 
Q 3044 2119 3236 1894 
Q 3428 1669 3622 1275 
L 4263 0 
L 3584 0 
L 2988 1197 
Q 2756 1666 2539 1819 
Q 2322 1972 1947 1972 
L 1259 1972 
L 1259 0 
L 628 0 
L 628 4666 
L 2053 4666 
Q 2853 4666 3247 4331 
Q 3641 3997 3641 3322 
Q 3641 2881 3436 2590 
Q 3231 2300 2841 2188 
z
M 1259 4147 
L 1259 2491 
L 2053 2491 
Q 2509 2491 2742 2702 
Q 2975 2913 2975 3322 
Q 2975 3731 2742 3939 
Q 2509 4147 2053 4147 
L 1259 4147 
z
" transform="scale(0.015625)"/>
        <path id="DejaVuSans-20" transform="scale(0.015625)"/>
        <path id="DejaVuSans-2f" d="M 1625 4666 
L 2156 4666 
L 531 -594 
L 0 -594 
L 1625 4666 
z
" transform="scale(0.015625)"/>
        <path id="DejaVuSans-64" d="M 2906 2969 
L 2906 4863 
L 3481 4863 
L 3481 0 
L 2906 0 
L 2906 525 
Q 2725 213 2448 61 
Q 2172 -91 1784 -91 
Q 1150 -91 751 415 
Q 353 922 353 1747 
Q 353 2572 751 3078 
Q 1150 3584 1784 3584 
Q 2172 3584 2448 3432 
Q 2725 3281 2906 2969 
z
M 947 1747 
Q 947 1113 1208 752 
Q 1469 391 1925 391 
Q 2381 391 2643 752 
Q 2906 1113 2906 1747 
Q 2906 2381 2643 2742 
Q 2381 3103 1925 3103 
Q 1469 3103 1208 2742 
Q 947 2381 947 1747 
z
" transform="scale(0.015625)"/>
        <path id="DejaVuSans-73" d="M 2834 3397 
L 2834 2853 
Q 2591 2978 2328 3040 
Q 2066 3103 1784 3103 
Q 1356 3103 1142 2972 
Q 928 2841 928 2578 
Q 928 2378 1081 2264 
Q 1234 2150 1697 2047 
L 1894 2003 
Q 2506 1872 2764 1633 
Q 3022 1394 3022 966 
Q 3022 478 2636 193 
Q 2250 -91 1575 -91 
Q 1294 -91 989 -36 
Q 684 19 347 128 
L 347 722 
Q 666 556 975 473 
Q 1284 391 1588 391 
Q 1994 391 2212 530 
Q 2431 669 2431 922 
Q 2431 1156 2273 1281 
Q 2116 1406 1581 1522 
L 1381 1569 
Q 847 1681 609 1914 
Q 372 2147 372 2553 
Q 372 3047 722 3315 
Q 1072 3584 1716 3584 
Q 2034 3584 2315 3537 
Q 2597 3491 2834 3397 
z
" transform="scale(0.015625)"/>
        <path id="DejaVuSans-5f" d="M 3263 -1063 
L 3263 -1509 
L -63 -1509 
L -63 -1063 
L 3263 -1063 
z
" transform="scale(0.015625)"/>
        <path id="DejaVuSans-76" d="M 191 3500 
L 800 3500 
L 1894 563 
L 2988 3500 
L 3597 3500 
L 2284 0 
L 1503 0 
L 191 3500 
z
" transform="scale(0.015625)"/>
       </defs>
       <use xlink:href="#DejaVuSans-52"/>
       <use xlink:href="#DejaVuSans-30" transform="translate(69.482422 0)"/>
       <use xlink:href="#DejaVuSans-20" transform="translate(133.105469 0)"/>
       <use xlink:href="#DejaVuSans-2f" transform="translate(164.892578 0)"/>
       <use xlink:href="#DejaVuSans-20" transform="translate(198.583984 0)"/>
       <use xlink:href="#DejaVuSans-64" transform="translate(230.371094 0)"/>
       <use xlink:href="#DejaVuSans-73" transform="translate(293.847656 0)"/>
       <use xlink:href="#DejaVuSans-5f" transform="translate(345.947266 0)"/>
       <use xlink:href="#DejaVuSans-76" transform="translate(395.947266 0)"/>
       <use xlink:href="#DejaVuSans-32" transform="translate(455.126953 0)"/>
      </g>
     </g>
    </g>
    <g id="ytick_2">
     <g id="line2d_8">
      <g>
       <use xlink:href="#m7da14f4b75" x="76.186334" y="279.34266" style="stroke: #000000; stroke-width: 0.8"/>
      </g>
     </g>
     <g id="text_9">
      <!-- R0 / dm_b_v1 -->
      <g transform="translate(21.758053 282.002113) scale(0.07 -0.07)">
       <defs>
        <path id="DejaVuSans-6d" d="M 3328 2828 
Q 3544 3216 3844 3400 
Q 4144 3584 4550 3584 
Q 5097 3584 5394 3201 
Q 5691 2819 5691 2113 
L 5691 0 
L 5113 0 
L 5113 2094 
Q 5113 2597 4934 2840 
Q 4756 3084 4391 3084 
Q 3944 3084 3684 2787 
Q 3425 2491 3425 1978 
L 3425 0 
L 2847 0 
L 2847 2094 
Q 2847 2600 2669 2842 
Q 2491 3084 2119 3084 
Q 1678 3084 1418 2786 
Q 1159 2488 1159 1978 
L 1159 0 
L 581 0 
L 581 3500 
L 1159 3500 
L 1159 2956 
Q 1356 3278 1631 3431 
Q 1906 3584 2284 3584 
Q 2666 3584 2933 3390 
Q 3200 3197 3328 2828 
z
" transform="scale(0.015625)"/>
        <path id="DejaVuSans-62" d="M 3116 1747 
Q 3116 2381 2855 2742 
Q 2594 3103 2138 3103 
Q 1681 3103 1420 2742 
Q 1159 2381 1159 1747 
Q 1159 1113 1420 752 
Q 1681 391 2138 391 
Q 2594 391 2855 752 
Q 3116 1113 3116 1747 
z
M 1159 2969 
Q 1341 3281 1617 3432 
Q 1894 3584 2278 3584 
Q 2916 3584 3314 3078 
Q 3713 2572 3713 1747 
Q 3713 922 3314 415 
Q 2916 -91 2278 -91 
Q 1894 -91 1617 61 
Q 1341 213 1159 525 
L 1159 0 
L 581 0 
L 581 4863 
L 1159 4863 
L 1159 2969 
z
" transform="scale(0.015625)"/>
       </defs>
       <use xlink:href="#DejaVuSans-52"/>
       <use xlink:href="#DejaVuSans-30" transform="translate(69.482422 0)"/>
       <use xlink:href="#DejaVuSans-20" transform="translate(133.105469 0)"/>
       <use xlink:href="#DejaVuSans-2f" transform="translate(164.892578 0)"/>
       <use xlink:href="#DejaVuSans-20" transform="translate(198.583984 0)"/>
       <use xlink:href="#DejaVuSans-64" transform="translate(230.371094 0)"/>
       <use xlink:href="#DejaVuSans-6d" transform="translate(293.847656 0)"/>
       <use xlink:href="#DejaVuSans-5f" transform="translate(391.259766 0)"/>
       <use xlink:href="#DejaVuSans-62" transform="translate(441.259766 0)"/>
       <use xlink:href="#DejaVuSans-5f" transform="translate(504.736328 0)"/>
       <use xlink:href="#DejaVuSans-76" transform="translate(554.736328 0)"/>
       <use xlink:href="#DejaVuSans-31" transform="translate(613.916016 0)"/>
      </g>
     </g>
    </g>
    <g id="ytick_3">
     <g id="line2d_9">
      <g>
       <use xlink:href="#m7da14f4b75" x="76.186334" y="255.573388" style="stroke: #000000; stroke-width: 0.8"/>
      </g>
     </g>
     <g id="text_10">
      <!-- R0 / dg_v1 -->
      <g transform="translate(32.07649 258.232841) scale(0.07 -0.07)">
       <defs>
        <path id="DejaVuSans-67" d="M 2906 1791 
Q 2906 2416 2648 2759 
Q 2391 3103 1925 3103 
Q 1463 3103 1205 2759 
Q 947 2416 947 1791 
Q 947 1169 1205 825 
Q 1463 481 1925 481 
Q 2391 481 2648 825 
Q 2906 1169 2906 1791 
z
M 3481 434 
Q 3481 -459 3084 -895 
Q 2688 -1331 1869 -1331 
Q 1566 -1331 1297 -1286 
Q 1028 -1241 775 -1147 
L 775 -588 
Q 1028 -725 1275 -790 
Q 1522 -856 1778 -856 
Q 2344 -856 2625 -561 
Q 2906 -266 2906 331 
L 2906 616 
Q 2728 306 2450 153 
Q 2172 0 1784 0 
Q 1141 0 747 490 
Q 353 981 353 1791 
Q 353 2603 747 3093 
Q 1141 3584 1784 3584 
Q 2172 3584 2450 3431 
Q 2728 3278 2906 2969 
L 2906 3500 
L 3481 3500 
L 3481 434 
z
" transform="scale(0.015625)"/>
       </defs>
       <use xlink:href="#DejaVuSans-52"/>
       <use xlink:href="#DejaVuSans-30" transform="translate(69.482422 0)"/>
       <use xlink:href="#DejaVuSans-20" transform="translate(133.105469 0)"/>
       <use xlink:href="#DejaVuSans-2f" transform="translate(164.892578 0)"/>
       <use xlink:href="#DejaVuSans-20" transform="translate(198.583984 0)"/>
       <use xlink:href="#DejaVuSans-64" transform="translate(230.371094 0)"/>
       <use xlink:href="#DejaVuSans-67" transform="translate(293.847656 0)"/>
       <use xlink:href="#DejaVuSans-5f" transform="translate(357.324219 0)"/>
       <use xlink:href="#DejaVuSans-76" transform="translate(407.324219 0)"/>
       <use xlink:href="#DejaVuSans-31" transform="translate(466.503906 0)"/>
      </g>
     </g>
    </g>
    <g id="ytick_4">
     <g id="line2d_10">
      <g>
       <use xlink:href="#m7da14f4b75" x="76.186334" y="231.804116" style="stroke: #000000; stroke-width: 0.8"/>
      </g>
     </g>
     <g id="text_11">
      <!-- R1 / ds_v2 -->
      <g transform="translate(32.873834 234.46357) scale(0.07 -0.07)">
       <use xlink:href="#DejaVuSans-52"/>
       <use xlink:href="#DejaVuSans-31" transform="translate(69.482422 0)"/>
       <use xlink:href="#DejaVuSans-20" transform="translate(133.105469 0)"/>
       <use xlink:href="#DejaVuSans-2f" transform="translate(164.892578 0)"/>
       <use xlink:href="#DejaVuSans-20" transform="translate(198.583984 0)"/>
       <use xlink:href="#DejaVuSans-64" transform="translate(230.371094 0)"/>
       <use xlink:href="#DejaVuSans-73" transform="translate(293.847656 0)"/>
       <use xlink:href="#DejaVuSans-5f" transform="translate(345.947266 0)"/>
       <use xlink:href="#DejaVuSans-76" transform="translate(395.947266 0)"/>
       <use xlink:href="#DejaVuSans-32" transform="translate(455.126953 0)"/>
      </g>
     </g>
    </g>
    <g id="ytick_5">
     <g id="line2d_11">
      <g>
       <use xlink:href="#m7da14f4b75" x="76.186334" y="208.034845" style="stroke: #000000; stroke-width: 0.8"/>
      </g>
     </g>
     <g id="text_12">
      <!-- R1 / dm_b_v1 -->
      <g transform="translate(21.758053 210.694298) scale(0.07 -0.07)">
       <use xlink:href="#DejaVuSans-52"/>
       <use xlink:href="#DejaVuSans-31" transform="translate(69.482422 0)"/>
       <use xlink:href="#DejaVuSans-20" transform="translate(133.105469 0)"/>
       <use xlink:href="#DejaVuSans-2f" transform="translate(164.892578 0)"/>
       <use xlink:href="#DejaVuSans-20" transform="translate(198.583984 0)"/>
       <use xlink:href="#DejaVuSans-64" transform="translate(230.371094 0)"/>
       <use xlink:href="#DejaVuSans-6d" transform="translate(293.847656 0)"/>
       <use xlink:href="#DejaVuSans-5f" transform="translate(391.259766 0)"/>
       <use xlink:href="#DejaVuSans-62" transform="translate(441.259766 0)"/>
       <use xlink:href="#DejaVuSans-5f" transform="translate(504.736328 0)"/>
       <use xlink:href="#DejaVuSans-76" transform="translate(554.736328 0)"/>
       <use xlink:href="#DejaVuSans-31" transform="translate(613.916016 0)"/>
      </g>
     </g>
    </g>
    <g id="ytick_6">
     <g id="line2d_12">
      <g>
       <use xlink:href="#m7da14f4b75" x="76.186334" y="184.265573" style="stroke: #000000; stroke-width: 0.8"/>
      </g>
     </g>
     <g id="text_13">
      <!-- R1 / dg_v1 -->
      <g transform="translate(32.07649 186.925026) scale(0.07 -0.07)">
       <use xlink:href="#DejaVuSans-52"/>
       <use xlink:href="#DejaVuSans-31" transform="translate(69.482422 0)"/>
       <use xlink:href="#DejaVuSans-20" transform="translate(133.105469 0)"/>
       <use xlink:href="#DejaVuSans-2f" transform="translate(164.892578 0)"/>
       <use xlink:href="#DejaVuSans-20" transform="translate(198.583984 0)"/>
       <use xlink:href="#DejaVuSans-64" transform="translate(230.371094 0)"/>
       <use xlink:href="#DejaVuSans-67" transform="translate(293.847656 0)"/>
       <use xlink:href="#DejaVuSans-5f" transform="translate(357.324219 0)"/>
       <use xlink:href="#DejaVuSans-76" transform="translate(407.324219 0)"/>
       <use xlink:href="#DejaVuSans-31" transform="translate(466.503906 0)"/>
      </g>
     </g>
    </g>
    <g id="ytick_7">
     <g id="line2d_13">
      <g>
       <use xlink:href="#m7da14f4b75" x="76.186334" y="160.496302" style="stroke: #000000; stroke-width: 0.8"/>
      </g>
     </g>
     <g id="text_14">
      <!-- R2-DMB / ds_v2 -->
      <g transform="translate(14.116021 163.155755) scale(0.07 -0.07)">
       <defs>
        <path id="DejaVuSans-2d" d="M 313 2009 
L 1997 2009 
L 1997 1497 
L 313 1497 
L 313 2009 
z
" transform="scale(0.015625)"/>
        <path id="DejaVuSans-44" d="M 1259 4147 
L 1259 519 
L 2022 519 
Q 2988 519 3436 956 
Q 3884 1394 3884 2338 
Q 3884 3275 3436 3711 
Q 2988 4147 2022 4147 
L 1259 4147 
z
M 628 4666 
L 1925 4666 
Q 3281 4666 3915 4102 
Q 4550 3538 4550 2338 
Q 4550 1131 3912 565 
Q 3275 0 1925 0 
L 628 0 
L 628 4666 
z
" transform="scale(0.015625)"/>
        <path id="DejaVuSans-4d" d="M 628 4666 
L 1569 4666 
L 2759 1491 
L 3956 4666 
L 4897 4666 
L 4897 0 
L 4281 0 
L 4281 4097 
L 3078 897 
L 2444 897 
L 1241 4097 
L 1241 0 
L 628 0 
L 628 4666 
z
" transform="scale(0.015625)"/>
        <path id="DejaVuSans-42" d="M 1259 2228 
L 1259 519 
L 2272 519 
Q 2781 519 3026 730 
Q 3272 941 3272 1375 
Q 3272 1813 3026 2020 
Q 2781 2228 2272 2228 
L 1259 2228 
z
M 1259 4147 
L 1259 2741 
L 2194 2741 
Q 2656 2741 2882 2914 
Q 3109 3088 3109 3444 
Q 3109 3797 2882 3972 
Q 2656 4147 2194 4147 
L 1259 4147 
z
M 628 4666 
L 2241 4666 
Q 2963 4666 3353 4366 
Q 3744 4066 3744 3513 
Q 3744 3084 3544 2831 
Q 3344 2578 2956 2516 
Q 3422 2416 3680 2098 
Q 3938 1781 3938 1306 
Q 3938 681 3513 340 
Q 3088 0 2303 0 
L 628 0 
L 628 4666 
z
" transform="scale(0.015625)"/>
       </defs>
       <use xlink:href="#DejaVuSans-52"/>
       <use xlink:href="#DejaVuSans-32" transform="translate(69.482422 0)"/>
       <use xlink:href="#DejaVuSans-2d" transform="translate(133.105469 0)"/>
       <use xlink:href="#DejaVuSans-44" transform="translate(169.189453 0)"/>
       <use xlink:href="#DejaVuSans-4d" transform="translate(246.191406 0)"/>
       <use xlink:href="#DejaVuSans-42" transform="translate(332.470703 0)"/>
       <use xlink:href="#DejaVuSans-20" transform="translate(401.074219 0)"/>
       <use xlink:href="#DejaVuSans-2f" transform="translate(432.861328 0)"/>
       <use xlink:href="#DejaVuSans-20" transform="translate(466.552734 0)"/>
       <use xlink:href="#DejaVuSans-64" transform="translate(498.339844 0)"/>
       <use xlink:href="#DejaVuSans-73" transform="translate(561.816406 0)"/>
       <use xlink:href="#DejaVuSans-5f" transform="translate(613.916016 0)"/>
       <use xlink:href="#DejaVuSans-76" transform="translate(663.916016 0)"/>
       <use xlink:href="#DejaVuSans-32" transform="translate(723.095703 0)"/>
      </g>
     </g>
    </g>
    <g id="ytick_8">
     <g id="line2d_14">
      <g>
       <use xlink:href="#m7da14f4b75" x="76.186334" y="136.72703" style="stroke: #000000; stroke-width: 0.8"/>
      </g>
     </g>
     <g id="text_15">
      <!-- R2-DMB / dm_b_v1 -->
      <g transform="translate(3.00024 139.386483) scale(0.07 -0.07)">
       <use xlink:href="#DejaVuSans-52"/>
       <use xlink:href="#DejaVuSans-32" transform="translate(69.482422 0)"/>
       <use xlink:href="#DejaVuSans-2d" transform="translate(133.105469 0)"/>
       <use xlink:href="#DejaVuSans-44" transform="translate(169.189453 0)"/>
       <use xlink:href="#DejaVuSans-4d" transform="translate(246.191406 0)"/>
       <use xlink:href="#DejaVuSans-42" transform="translate(332.470703 0)"/>
       <use xlink:href="#DejaVuSans-20" transform="translate(401.074219 0)"/>
       <use xlink:href="#DejaVuSans-2f" transform="translate(432.861328 0)"/>
       <use xlink:href="#DejaVuSans-20" transform="translate(466.552734 0)"/>
       <use xlink:href="#DejaVuSans-64" transform="translate(498.339844 0)"/>
       <use xlink:href="#DejaVuSans-6d" transform="translate(561.816406 0)"/>
       <use xlink:href="#DejaVuSans-5f" transform="translate(659.228516 0)"/>
       <use xlink:href="#DejaVuSans-62" transform="translate(709.228516 0)"/>
       <use xlink:href="#DejaVuSans-5f" transform="translate(772.705078 0)"/>
       <use xlink:href="#DejaVuSans-76" transform="translate(822.705078 0)"/>
       <use xlink:href="#DejaVuSans-31" transform="translate(881.884766 0)"/>
      </g>
     </g>
    </g>
    <g id="ytick_9">
     <g id="line2d_15">
      <g>
       <use xlink:href="#m7da14f4b75" x="76.186334" y="112.957759" style="stroke: #000000; stroke-width: 0.8"/>
      </g>
     </g>
     <g id="text_16">
      <!-- R2-DMB / dg_v1 -->
      <g transform="translate(13.318678 115.617212) scale(0.07 -0.07)">
       <use xlink:href="#DejaVuSans-52"/>
       <use xlink:href="#DejaVuSans-32" transform="translate(69.482422 0)"/>
       <use xlink:href="#DejaVuSans-2d" transform="translate(133.105469 0)"/>
       <use xlink:href="#DejaVuSans-44" transform="translate(169.189453 0)"/>
       <use xlink:href="#DejaVuSans-4d" transform="translate(246.191406 0)"/>
       <use xlink:href="#DejaVuSans-42" transform="translate(332.470703 0)"/>
       <use xlink:href="#DejaVuSans-20" transform="translate(401.074219 0)"/>
       <use xlink:href="#DejaVuSans-2f" transform="translate(432.861328 0)"/>
       <use xlink:href="#DejaVuSans-20" transform="translate(466.552734 0)"/>
       <use xlink:href="#DejaVuSans-64" transform="translate(498.339844 0)"/>
       <use xlink:href="#DejaVuSans-67" transform="translate(561.816406 0)"/>
       <use xlink:href="#DejaVuSans-5f" transform="translate(625.292969 0)"/>
       <use xlink:href="#DejaVuSans-76" transform="translate(675.292969 0)"/>
       <use xlink:href="#DejaVuSans-31" transform="translate(734.472656 0)"/>
      </g>
     </g>
    </g>
    <g id="ytick_10">
     <g id="line2d_16">
      <g>
       <use xlink:href="#m7da14f4b75" x="76.186334" y="89.188487" style="stroke: #000000; stroke-width: 0.8"/>
      </g>
     </g>
     <g id="text_17">
      <!-- R2-D_S / ds_v2 -->
      <g transform="translate(17.014459 91.84794) scale(0.07 -0.07)">
       <defs>
        <path id="DejaVuSans-53" d="M 3425 4513 
L 3425 3897 
Q 3066 4069 2747 4153 
Q 2428 4238 2131 4238 
Q 1616 4238 1336 4038 
Q 1056 3838 1056 3469 
Q 1056 3159 1242 3001 
Q 1428 2844 1947 2747 
L 2328 2669 
Q 3034 2534 3370 2195 
Q 3706 1856 3706 1288 
Q 3706 609 3251 259 
Q 2797 -91 1919 -91 
Q 1588 -91 1214 -16 
Q 841 59 441 206 
L 441 856 
Q 825 641 1194 531 
Q 1563 422 1919 422 
Q 2459 422 2753 634 
Q 3047 847 3047 1241 
Q 3047 1584 2836 1778 
Q 2625 1972 2144 2069 
L 1759 2144 
Q 1053 2284 737 2584 
Q 422 2884 422 3419 
Q 422 4038 858 4394 
Q 1294 4750 2059 4750 
Q 2388 4750 2728 4690 
Q 3069 4631 3425 4513 
z
" transform="scale(0.015625)"/>
       </defs>
       <use xlink:href="#DejaVuSans-52"/>
       <use xlink:href="#DejaVuSans-32" transform="translate(69.482422 0)"/>
       <use xlink:href="#DejaVuSans-2d" transform="translate(133.105469 0)"/>
       <use xlink:href="#DejaVuSans-44" transform="translate(169.189453 0)"/>
       <use xlink:href="#DejaVuSans-5f" transform="translate(246.191406 0)"/>
       <use xlink:href="#DejaVuSans-53" transform="translate(296.191406 0)"/>
       <use xlink:href="#DejaVuSans-20" transform="translate(359.667969 0)"/>
       <use xlink:href="#DejaVuSans-2f" transform="translate(391.455078 0)"/>
       <use xlink:href="#DejaVuSans-20" transform="translate(425.146484 0)"/>
       <use xlink:href="#DejaVuSans-64" transform="translate(456.933594 0)"/>
       <use xlink:href="#DejaVuSans-73" transform="translate(520.410156 0)"/>
       <use xlink:href="#DejaVuSans-5f" transform="translate(572.509766 0)"/>
       <use xlink:href="#DejaVuSans-76" transform="translate(622.509766 0)"/>
       <use xlink:href="#DejaVuSans-32" transform="translate(681.689453 0)"/>
      </g>
     </g>
    </g>
    <g id="ytick_11">
     <g id="line2d_17">
      <g>
       <use xlink:href="#m7da14f4b75" x="76.186334" y="65.419215" style="stroke: #000000; stroke-width: 0.8"/>
      </g>
     </g>
     <g id="text_18">
      <!-- R2-D_S / dm_b_v1 -->
      <g transform="translate(5.898678 68.078669) scale(0.07 -0.07)">
       <use xlink:href="#DejaVuSans-52"/>
       <use xlink:href="#DejaVuSans-32" transform="translate(69.482422 0)"/>
       <use xlink:href="#DejaVuSans-2d" transform="translate(133.105469 0)"/>
       <use xlink:href="#DejaVuSans-44" transform="translate(169.189453 0)"/>
       <use xlink:href="#DejaVuSans-5f" transform="translate(246.191406 0)"/>
       <use xlink:href="#DejaVuSans-53" transform="translate(296.191406 0)"/>
       <use xlink:href="#DejaVuSans-20" transform="translate(359.667969 0)"/>
       <use xlink:href="#DejaVuSans-2f" transform="translate(391.455078 0)"/>
       <use xlink:href="#DejaVuSans-20" transform="translate(425.146484 0)"/>
       <use xlink:href="#DejaVuSans-64" transform="translate(456.933594 0)"/>
       <use xlink:href="#DejaVuSans-6d" transform="translate(520.410156 0)"/>
       <use xlink:href="#DejaVuSans-5f" transform="translate(617.822266 0)"/>
       <use xlink:href="#DejaVuSans-62" transform="translate(667.822266 0)"/>
       <use xlink:href="#DejaVuSans-5f" transform="translate(731.298828 0)"/>
       <use xlink:href="#DejaVuSans-76" transform="translate(781.298828 0)"/>
       <use xlink:href="#DejaVuSans-31" transform="translate(840.478516 0)"/>
      </g>
     </g>
    </g>
    <g id="ytick_12">
     <g id="line2d_18">
      <g>
       <use xlink:href="#m7da14f4b75" x="76.186334" y="41.649944" style="stroke: #000000; stroke-width: 0.8"/>
      </g>
     </g>
     <g id="text_19">
      <!-- R2-D_S / dg_v1 -->
      <g transform="translate(16.217115 44.309397) scale(0.07 -0.07)">
       <use xlink:href="#DejaVuSans-52"/>
       <use xlink:href="#DejaVuSans-32" transform="translate(69.482422 0)"/>
       <use xlink:href="#DejaVuSans-2d" transform="translate(133.105469 0)"/>
       <use xlink:href="#DejaVuSans-44" transform="translate(169.189453 0)"/>
       <use xlink:href="#DejaVuSans-5f" transform="translate(246.191406 0)"/>
       <use xlink:href="#DejaVuSans-53" transform="translate(296.191406 0)"/>
       <use xlink:href="#DejaVuSans-20" transform="translate(359.667969 0)"/>
       <use xlink:href="#DejaVuSans-2f" transform="translate(391.455078 0)"/>
       <use xlink:href="#DejaVuSans-20" transform="translate(425.146484 0)"/>
       <use xlink:href="#DejaVuSans-64" transform="translate(456.933594 0)"/>
       <use xlink:href="#DejaVuSans-67" transform="translate(520.410156 0)"/>
       <use xlink:href="#DejaVuSans-5f" transform="translate(583.886719 0)"/>
       <use xlink:href="#DejaVuSans-76" transform="translate(633.886719 0)"/>
       <use xlink:href="#DejaVuSans-31" transform="translate(693.066406 0)"/>
      </g>
     </g>
    </g>
   </g>
   <g id="patch_15">
    <path d="M 76.186334 326.64351 
L 76.186334 18.118365 
" style="fill: none; stroke: #000000; stroke-width: 0.8; stroke-linejoin: miter; stroke-linecap: square"/>
   </g>
   <g id="patch_16">
    <path d="M 643.000212 326.64351 
L 643.000212 18.118365 
" style="fill: none; stroke: #000000; stroke-width: 0.8; stroke-linejoin: miter; stroke-linecap: square"/>
   </g>
   <g id="patch_17">
    <path d="M 76.186334 326.64351 
L 643.000212 326.64351 
" style="fill: none; stroke: #000000; stroke-width: 0.8; stroke-linejoin: miter; stroke-linecap: square"/>
   </g>
   <g id="patch_18">
    <path d="M 76.186334 18.118365 
L 643.000212 18.118365 
" style="fill: none; stroke: #000000; stroke-width: 0.8; stroke-linejoin: miter; stroke-linecap: square"/>
   </g>
   <g id="text_20">
    <!-- R3: NOT_YET_OBSERVED -->
    <g transform="translate(537.863323 323.558259) scale(0.08 -0.08)">
     <defs>
      <path id="DejaVuSans-33" d="M 2597 2516 
Q 3050 2419 3304 2112 
Q 3559 1806 3559 1356 
Q 3559 666 3084 287 
Q 2609 -91 1734 -91 
Q 1441 -91 1130 -33 
Q 819 25 488 141 
L 488 750 
Q 750 597 1062 519 
Q 1375 441 1716 441 
Q 2309 441 2620 675 
Q 2931 909 2931 1356 
Q 2931 1769 2642 2001 
Q 2353 2234 1838 2234 
L 1294 2234 
L 1294 2753 
L 1863 2753 
Q 2328 2753 2575 2939 
Q 2822 3125 2822 3475 
Q 2822 3834 2567 4026 
Q 2313 4219 1838 4219 
Q 1578 4219 1281 4162 
Q 984 4106 628 3988 
L 628 4550 
Q 988 4650 1302 4700 
Q 1616 4750 1894 4750 
Q 2613 4750 3031 4423 
Q 3450 4097 3450 3541 
Q 3450 3153 3228 2886 
Q 3006 2619 2597 2516 
z
" transform="scale(0.015625)"/>
      <path id="DejaVuSans-3a" d="M 750 794 
L 1409 794 
L 1409 0 
L 750 0 
L 750 794 
z
M 750 3309 
L 1409 3309 
L 1409 2516 
L 750 2516 
L 750 3309 
z
" transform="scale(0.015625)"/>
      <path id="DejaVuSans-4e" d="M 628 4666 
L 1478 4666 
L 3547 763 
L 3547 4666 
L 4159 4666 
L 4159 0 
L 3309 0 
L 1241 3903 
L 1241 0 
L 628 0 
L 628 4666 
z
" transform="scale(0.015625)"/>
      <path id="DejaVuSans-4f" d="M 2522 4238 
Q 1834 4238 1429 3725 
Q 1025 3213 1025 2328 
Q 1025 1447 1429 934 
Q 1834 422 2522 422 
Q 3209 422 3611 934 
Q 4013 1447 4013 2328 
Q 4013 3213 3611 3725 
Q 3209 4238 2522 4238 
z
M 2522 4750 
Q 3503 4750 4090 4092 
Q 4678 3434 4678 2328 
Q 4678 1225 4090 567 
Q 3503 -91 2522 -91 
Q 1538 -91 948 565 
Q 359 1222 359 2328 
Q 359 3434 948 4092 
Q 1538 4750 2522 4750 
z
" transform="scale(0.015625)"/>
      <path id="DejaVuSans-54" d="M -19 4666 
L 3928 4666 
L 3928 4134 
L 2272 4134 
L 2272 0 
L 1638 0 
L 1638 4134 
L -19 4134 
L -19 4666 
z
" transform="scale(0.015625)"/>
      <path id="DejaVuSans-59" d="M -13 4666 
L 666 4666 
L 1959 2747 
L 3244 4666 
L 3922 4666 
L 2272 2222 
L 2272 0 
L 1638 0 
L 1638 2222 
L -13 4666 
z
" transform="scale(0.015625)"/>
      <path id="DejaVuSans-45" d="M 628 4666 
L 3578 4666 
L 3578 4134 
L 1259 4134 
L 1259 2753 
L 3481 2753 
L 3481 2222 
L 1259 2222 
L 1259 531 
L 3634 531 
L 3634 0 
L 628 0 
L 628 4666 
z
" transform="scale(0.015625)"/>
      <path id="DejaVuSans-56" d="M 1831 0 
L 50 4666 
L 709 4666 
L 2188 738 
L 3669 4666 
L 4325 4666 
L 2547 0 
L 1831 0 
z
" transform="scale(0.015625)"/>
     </defs>
     <use xlink:href="#DejaVuSans-52"/>
     <use xlink:href="#DejaVuSans-33" transform="translate(69.482422 0)"/>
     <use xlink:href="#DejaVuSans-3a" transform="translate(133.105469 0)"/>
     <use xlink:href="#DejaVuSans-20" transform="translate(166.796875 0)"/>
     <use xlink:href="#DejaVuSans-4e" transform="translate(198.583984 0)"/>
     <use xlink:href="#DejaVuSans-4f" transform="translate(273.388672 0)"/>
     <use xlink:href="#DejaVuSans-54" transform="translate(352.099609 0)"/>
     <use xlink:href="#DejaVuSans-5f" transform="translate(413.183594 0)"/>
     <use xlink:href="#DejaVuSans-59" transform="translate(463.183594 0)"/>
     <use xlink:href="#DejaVuSans-45" transform="translate(524.267578 0)"/>
     <use xlink:href="#DejaVuSans-54" transform="translate(587.451172 0)"/>
     <use xlink:href="#DejaVuSans-5f" transform="translate(648.535156 0)"/>
     <use xlink:href="#DejaVuSans-4f" transform="translate(698.535156 0)"/>
     <use xlink:href="#DejaVuSans-42" transform="translate(777.246094 0)"/>
     <use xlink:href="#DejaVuSans-53" transform="translate(844.099609 0)"/>
     <use xlink:href="#DejaVuSans-45" transform="translate(907.576172 0)"/>
     <use xlink:href="#DejaVuSans-52" transform="translate(970.759766 0)"/>
     <use xlink:href="#DejaVuSans-56" transform="translate(1034.742188 0)"/>
     <use xlink:href="#DejaVuSans-45" transform="translate(1103.150391 0)"/>
     <use xlink:href="#DejaVuSans-44" transform="translate(1166.333984 0)"/>
    </g>
   </g>
   <g id="text_21">
    <!-- FNR -->
    <g transform="translate(347.484523 12.118365) scale(0.12 -0.12)">
     <use xlink:href="#DejaVuSans-46"/>
     <use xlink:href="#DejaVuSans-4e" transform="translate(57.519531 0)"/>
     <use xlink:href="#DejaVuSans-52" transform="translate(132.324219 0)"/>
    </g>
   </g>
  </g>
 </g>
 <defs>
  <clipPath id="p803eaa56cf">
   <rect x="76.186334" y="18.118365" width="566.813879" height="308.525145"/>
  </clipPath>
 </defs>
</svg>
